<?xml version="1.0" encoding="UTF-8"?>
<svg xmlns="http://www.w3.org/2000/svg" width="79.56" height="92.34" viewBox="10.22 3.83 79.56 92.34" style="color: #dde052;" data-source="jj.png" data-row="3" data-column="5">
  <path fill="currentColor" fill-rule="evenodd" d="M 67.55 5.83 L 68.37 5.83 L 68.37 6.24 L 71.26 6.24 L 71.26 6.65 L 72.91 6.65 L 72.91 7.06 L 73.74 7.06 L 73.74 7.48 L 74.56 7.48 L 74.56 7.89 L 74.98 7.89 L 74.98 8.3 L 74.15 8.3 L 74.15 8.72 L 73.33 8.72 L 73.33 9.13 L 75.8 9.13 L 75.8 9.54 L 78.28 9.95 L 78.28 10.37 L 79.93 10.78 L 80.76 12.02 L 81.58 12.02 L 82.41 13.26 L 81.17 13.26 L 81.17 12.84 L 79.11 12.84 L 79.11 13.26 L 81.17 13.67 L 81.58 14.5 L 82.41 14.5 L 82.41 14.91 L 82.82 14.91 L 82.82 15.32 L 83.23 15.32 L 83.23 15.73 L 83.65 15.73 L 83.65 16.15 L 85.3 17.39 L 85.3 18.21 L 85.71 18.21 L 85.71 18.62 L 86.12 18.62 L 86.12 19.45 L 86.54 19.45 L 86.95 21.93 L 87.36 21.93 L 87.36 23.58 L 87.78 23.58 L 87.78 28.12 L 87.36 28.12 L 87.36 26.88 L 86.95 26.88 L 86.95 25.64 L 86.54 25.64 L 86.54 31.42 L 86.12 31.42 L 86.12 33.07 L 85.71 33.07 L 85.71 33.9 L 85.3 33.9 L 85.3 34.72 L 84.89 34.72 L 84.89 35.55 L 84.47 35.55 L 84.47 35.96 L 84.06 35.96 L 84.47 32.66 L 83.65 33.07 L 83.65 34.31 L 83.23 34.31 L 83.23 34.72 L 82.41 34.72 L 82.41 33.49 L 82 33.49 L 82 32.66 L 81.17 32.25 L 81.17 31.42 L 80.76 31.42 L 80.34 30.6 L 79.52 30.6 L 79.11 29.77 L 77.45 29.36 L 77.45 28.94 L 72.91 28.94 L 72.91 29.36 L 72.09 29.36 L 72.09 29.77 L 71.67 29.77 L 71.67 30.18 L 70.02 31.42 L 69.61 34.31 L 69.2 34.31 L 69.2 35.96 L 69.61 35.96 L 70.02 38.03 L 70.85 38.44 L 70.85 35.96 L 71.26 35.96 L 71.26 36.79 L 71.67 36.79 L 72.09 38.44 L 72.91 38.85 L 72.91 39.68 L 73.33 39.68 L 73.33 40.09 L 73.74 40.09 L 73.74 40.5 L 74.15 40.5 L 74.15 40.92 L 74.56 40.92 L 74.56 41.33 L 74.98 41.33 L 74.98 41.74 L 75.39 41.74 L 75.39 42.16 L 75.8 42.16 L 75.8 42.57 L 77.45 43.81 L 77.45 44.63 L 78.69 45.46 L 78.69 46.28 L 79.11 46.28 L 79.11 47.11 L 79.52 47.11 L 79.52 47.94 L 79.93 47.94 L 80.34 50.41 L 80.76 50.41 L 80.76 52.06 L 81.58 51.65 L 81.58 50.41 L 82 50.41 L 82.41 53.3 L 82.82 53.3 L 82.82 54.95 L 83.23 54.95 L 83.23 57.43 L 83.65 57.43 L 83.65 66.93 L 83.23 66.93 L 82.82 69.82 L 82.41 69.82 L 82 70.64 L 82.41 70.64 L 82.41 70.23 L 83.23 70.23 L 83.65 69.4 L 84.06 69.4 L 84.06 70.64 L 83.65 70.64 L 83.65 72.71 L 83.23 72.71 L 82.82 75.18 L 82 75.6 L 82 76.42 L 81.58 76.42 L 81.58 77.25 L 80.76 77.66 L 80.76 78.49 L 80.34 78.49 L 80.34 78.9 L 79.93 78.9 L 79.93 79.31 L 79.52 79.31 L 78.28 80.96 L 77.45 80.96 L 77.45 81.38 L 77.04 81.38 L 77.04 81.79 L 76.22 81.79 L 75.8 82.61 L 74.98 82.61 L 74.98 83.03 L 73.33 83.44 L 73.33 83.85 L 74.15 83.85 L 74.15 83.44 L 76.63 83.44 L 76.63 83.85 L 76.22 83.85 L 75.8 84.68 L 74.98 84.68 L 73.74 86.33 L 72.09 86.74 L 71.67 87.57 L 70.85 87.57 L 70.85 87.98 L 70.02 87.98 L 70.02 88.39 L 69.2 88.39 L 69.2 88.81 L 67.96 88.81 L 67.96 89.22 L 66.72 89.22 L 66.72 89.63 L 65.48 89.63 L 65.48 90.05 L 60.11 90.46 L 60.11 90.87 L 57.64 90.87 L 58.05 90.05 L 58.88 90.05 L 58.88 89.63 L 60.53 88.39 L 60.53 87.57 L 61.35 87.16 L 61.77 85.5 L 62.59 85.09 L 62.59 83.85 L 63 83.85 L 63 83.03 L 63.42 83.03 L 63.42 82.2 L 63.83 82.2 L 63.83 80.96 L 64.24 80.96 L 64.24 79.31 L 64.66 79.31 L 64.66 77.66 L 65.07 77.66 L 65.07 75.18 L 65.48 75.18 L 65.48 66.1 L 65.07 66.1 L 65.07 63.62 L 64.66 63.62 L 64.66 61.97 L 64.24 61.97 L 64.24 60.73 L 63.83 60.73 L 63.42 58.26 L 63 58.26 L 63 57.43 L 62.59 57.43 L 62.59 56.61 L 62.18 56.61 L 62.18 55.78 L 61.77 55.78 L 61.35 54.13 L 60.11 53.3 L 60.11 52.48 L 59.7 52.48 L 59.7 52.06 L 59.29 52.06 L 59.29 51.65 L 58.88 51.65 L 58.88 51.24 L 58.46 51.24 L 58.46 50.83 L 58.05 50.83 L 58.05 50.41 L 57.64 50.41 L 56.4 48.76 L 55.57 48.76 L 54.75 47.52 L 53.92 47.52 L 53.92 47.11 L 53.51 47.11 L 53.51 46.7 L 53.1 46.7 L 53.1 46.28 L 52.68 46.28 L 52.68 45.87 L 52.27 45.87 L 52.27 45.46 L 51.86 45.46 L 51.86 45.05 L 51.44 45.05 L 51.44 44.63 L 51.03 44.63 L 51.03 44.22 L 49.38 42.98 L 49.38 42.16 L 48.97 42.16 L 48.97 41.74 L 48.14 41.33 L 48.14 40.5 L 47.32 40.09 L 47.32 39.27 L 46.9 39.27 L 46.9 38.44 L 46.49 38.44 L 46.49 37.2 L 46.08 37.2 L 46.08 35.96 L 45.67 35.96 L 45.67 34.72 L 45.25 34.72 L 45.25 33.49 L 45.67 33.49 L 45.67 34.31 L 46.08 34.31 L 46.49 35.96 L 47.32 36.38 L 46.9 34.31 L 46.49 34.31 L 46.49 33.07 L 46.08 33.07 L 46.08 31.42 L 45.67 31.42 L 45.67 29.36 L 45.25 29.36 L 45.25 23.99 L 45.67 23.99 L 45.67 21.93 L 46.08 21.93 L 46.49 19.04 L 47.32 19.45 L 47.32 21.93 L 47.73 21.93 L 48.14 18.62 L 48.56 18.62 L 48.56 17.8 L 48.97 17.8 L 49.38 15.73 L 50.21 15.32 L 50.21 14.5 L 51.03 14.08 L 51.03 13.26 L 51.44 13.26 L 51.44 12.84 L 51.86 12.84 L 51.86 12.43 L 52.27 12.43 L 52.27 12.02 L 52.68 12.02 L 52.68 11.61 L 53.1 11.61 L 54.33 9.95 L 55.16 9.95 L 55.57 9.13 L 56.4 9.13 L 56.4 8.72 L 57.22 8.72 L 57.22 8.3 L 58.05 8.3 L 58.05 9.13 L 57.22 9.54 L 57.22 9.95 L 57.64 9.95 L 58.05 9.13 L 58.88 9.13 L 59.29 8.3 L 60.11 8.3 L 60.11 7.89 L 60.94 7.89 L 60.94 7.48 L 61.77 7.48 L 61.77 7.06 L 63 7.06 L 63 6.65 L 64.24 6.65 L 64.24 6.24 L 67.55 6.24 Z M 28.33 19.04 L 29.15 19.04 L 29.15 19.86 L 29.56 19.86 L 29.56 20.69 L 29.98 20.69 L 29.98 23.99 L 30.39 23.99 L 30.39 23.17 L 31.22 22.75 L 31.22 26.88 L 31.63 26.88 L 31.63 27.71 L 32.04 27.71 L 32.04 28.53 L 32.45 28.53 L 32.45 29.36 L 32.87 29.36 L 32.87 33.49 L 33.69 33.49 L 33.69 33.9 L 34.11 33.9 L 34.11 34.31 L 34.52 34.31 L 34.52 34.72 L 34.93 34.72 L 34.93 35.14 L 35.34 35.14 L 35.34 35.55 L 37 36.79 L 37 37.61 L 37.82 38.03 L 37.82 38.85 L 38.65 39.27 L 38.65 40.09 L 39.89 40.92 L 39.89 41.74 L 40.3 41.74 L 41.12 42.98 L 41.95 42.98 L 42.36 43.81 L 43.19 43.81 L 43.19 44.22 L 44.01 44.22 L 44.01 44.63 L 44.84 44.63 L 44.84 45.05 L 46.08 45.05 L 46.08 45.46 L 47.32 45.46 L 47.32 45.87 L 49.79 46.28 L 49.79 46.7 L 50.62 46.7 L 50.62 47.11 L 51.44 47.11 L 51.44 47.52 L 53.1 47.94 L 53.1 48.35 L 53.51 48.35 L 53.51 48.76 L 54.33 48.76 L 54.75 49.59 L 55.57 49.59 L 55.57 50 L 55.99 50 L 55.99 50.41 L 56.4 50.41 L 56.4 50.83 L 56.81 50.83 L 56.81 51.24 L 57.22 51.24 L 57.22 51.65 L 57.64 51.65 L 57.64 52.06 L 59.29 53.3 L 59.29 54.13 L 60.53 54.95 L 60.53 55.78 L 60.94 55.78 L 60.94 56.61 L 61.35 56.61 L 61.35 57.43 L 61.77 57.43 L 61.77 58.26 L 62.18 58.26 L 62.18 59.08 L 62.59 59.08 L 63 61.56 L 63.42 61.56 L 63.83 65.28 L 64.24 65.28 L 64.66 72.29 L 64.24 72.29 L 64.24 76.42 L 63.83 76.42 L 63.83 78.49 L 63.42 78.49 L 63 81.38 L 62.59 81.38 L 62.18 83.44 L 61.77 83.44 L 61.77 84.27 L 61.35 84.27 L 60.94 85.92 L 60.11 86.33 L 60.11 87.16 L 59.7 87.16 L 59.7 87.57 L 59.29 87.57 L 59.29 87.98 L 58.88 87.98 L 58.88 88.39 L 58.46 88.39 L 57.22 90.05 L 56.4 90.05 L 56.4 90.46 L 55.57 90.46 L 55.57 90.87 L 54.75 90.87 L 54.75 91.28 L 51.86 91.7 L 51.86 92.11 L 52.27 92.11 L 52.27 92.94 L 51.86 92.94 L 51.86 93.35 L 48.56 93.35 L 48.56 92.94 L 41.95 92.94 L 41.95 92.52 L 37.41 92.52 L 37.41 92.94 L 34.52 93.35 L 34.52 93.76 L 32.87 93.76 L 32.87 94.17 L 32.45 94.17 L 32.45 93.35 L 32.87 93.35 L 32.87 92.94 L 29.98 92.94 L 29.98 93.35 L 29.15 93.35 L 29.15 93.76 L 28.74 93.76 L 28.74 92.94 L 29.15 92.94 L 29.56 92.11 L 29.15 92.11 L 29.15 92.52 L 27.91 92.52 L 27.91 92.11 L 28.74 91.7 L 28.33 90.87 L 28.74 90.87 L 29.56 89.63 L 27.09 89.63 L 27.09 90.05 L 26.67 90.05 L 26.67 89.22 L 27.91 88.39 L 27.91 87.57 L 29.98 87.16 L 29.98 86.74 L 32.04 86.74 L 32.04 86.33 L 32.87 86.33 L 32.87 86.74 L 35.76 86.74 L 35.76 87.16 L 37.41 87.57 L 38.23 88.81 L 36.58 88.81 L 36.58 88.39 L 32.04 88.39 L 31.63 89.22 L 30.8 89.22 L 30.8 89.63 L 29.98 89.63 L 29.98 90.05 L 30.8 90.05 L 30.8 89.63 L 31.63 89.63 L 31.63 89.22 L 39.47 89.22 L 39.47 88.81 L 39.06 88.81 L 39.06 88.39 L 38.65 88.39 L 38.65 87.98 L 38.23 87.98 L 38.23 87.57 L 36.58 86.33 L 36.58 85.5 L 35.76 85.09 L 35.76 83.85 L 35.34 83.85 L 35.34 83.03 L 34.93 83.03 L 34.93 81.79 L 34.52 81.79 L 34.52 78.9 L 34.11 78.9 L 34.11 77.25 L 34.52 77.25 L 34.52 73.94 L 34.93 73.94 L 35.34 71.47 L 35.76 71.47 L 35.76 70.64 L 36.58 70.23 L 36.58 69.4 L 37 69.4 L 37 68.99 L 37.41 68.99 L 37.41 68.58 L 37.82 68.58 L 37.82 68.17 L 38.23 68.17 L 39.47 66.51 L 42.36 66.1 L 42.36 65.69 L 46.9 66.1 L 46.9 66.51 L 48.14 66.51 L 48.14 66.1 L 47.32 66.1 L 47.32 65.69 L 46.49 65.69 L 46.49 65.28 L 44.43 65.28 L 44.43 64.86 L 41.54 64.86 L 41.54 65.28 L 40.71 65.28 L 40.71 64.04 L 41.12 64.04 L 41.54 62.39 L 40.3 63.21 L 40.3 64.04 L 39.89 64.04 L 39.06 65.28 L 38.23 65.28 L 38.23 65.69 L 37.41 65.69 L 37.41 66.1 L 36.58 66.1 L 36.58 66.51 L 34.93 66.51 L 34.93 66.93 L 30.8 66.93 L 30.8 66.51 L 29.56 66.51 L 29.56 66.1 L 27.09 65.69 L 27.09 65.28 L 26.26 65.28 L 26.26 64.86 L 25.44 64.86 L 25.44 64.45 L 24.2 64.45 L 24.2 64.04 L 23.37 64.04 L 23.37 63.62 L 22.13 63.62 L 22.13 63.21 L 21.31 63.21 L 21.31 64.45 L 20.89 64.45 L 20.89 64.86 L 20.07 64.86 L 20.07 65.69 L 20.89 65.69 L 21.31 66.51 L 18.83 66.51 L 18.83 66.1 L 18 66.1 L 18.42 66.93 L 17.18 66.93 L 17.18 66.51 L 16.35 66.51 L 15.94 64.45 L 15.53 64.45 L 15.53 61.97 L 15.94 61.97 L 15.94 61.56 L 16.35 61.56 L 17.59 59.91 L 18.42 59.91 L 18.42 59.5 L 24.61 59.5 L 24.61 59.08 L 27.91 59.08 L 27.91 58.67 L 28.33 58.67 L 27.91 56.61 L 27.5 56.61 L 27.5 51.65 L 27.91 51.65 L 27.91 50.83 L 28.33 50.83 L 28.74 49.17 L 28.33 49.17 L 28.33 49.59 L 27.91 49.59 L 27.91 50.41 L 27.09 50.83 L 27.09 51.65 L 26.67 51.65 L 26.67 53.3 L 26.26 53.3 L 26.26 52.89 L 25.85 52.89 L 25.85 52.06 L 25.44 52.06 L 24.61 50.83 L 23.78 50.83 L 23.78 50.41 L 22.55 50.41 L 22.55 50 L 20.48 50 L 20.48 50.41 L 15.94 50.41 L 15.94 50 L 15.11 50 L 15.11 49.59 L 14.7 49.59 L 14.7 48.35 L 13.88 48.35 L 13.88 48.76 L 13.46 48.76 L 13.46 48.35 L 12.22 47.52 L 12.22 46.28 L 12.64 46.28 L 12.64 45.46 L 13.05 45.46 L 13.05 44.63 L 13.46 44.63 L 13.46 43.81 L 13.88 43.81 L 13.88 42.16 L 14.29 42.16 L 14.7 39.68 L 15.11 39.68 L 15.53 38.03 L 16.35 37.61 L 16.35 36.79 L 16.77 36.79 L 18 35.14 L 18.83 35.14 L 19.66 33.9 L 20.48 33.9 L 20.48 33.49 L 21.31 33.49 L 21.31 33.07 L 22.55 33.07 L 22.55 32.66 L 23.78 32.66 L 23.78 32.25 L 25.02 32.25 L 25.02 28.53 L 25.44 28.53 L 25.44 26.88 L 25.85 26.88 L 25.85 26.06 L 26.26 26.06 L 26.26 24.82 L 26.67 24.82 L 26.67 23.58 L 27.09 23.58 L 27.09 22.34 L 27.5 22.34 L 27.5 19.45 L 27.91 19.45 L 27.91 20.69 L 28.33 20.69 L 28.33 21.51 L 28.74 21.51 L 28.74 19.86 L 28.33 19.86 Z M 22.13 21.1 L 22.96 21.1 L 22.96 21.93 L 23.37 21.93 L 23.37 22.75 L 23.78 22.75 L 23.78 23.17 L 24.2 23.17 L 24.2 21.93 L 24.61 21.93 L 24.61 22.34 L 25.02 22.34 L 25.02 23.99 L 25.44 23.99 L 25.44 25.64 L 25.02 25.64 L 25.02 26.88 L 24.61 26.88 L 24.61 28.12 L 24.2 28.12 L 24.2 31.42 L 23.37 31.42 L 23.37 31.83 L 22.13 31.83 L 22.13 31.42 L 21.72 31.42 L 21.72 30.6 L 21.31 30.6 L 21.31 29.36 L 20.89 29.36 L 20.89 22.34 L 21.72 22.75 L 21.72 23.58 L 22.55 23.58 L 22.55 23.17 L 22.13 23.17 Z M 27.5 30.18 L 29.15 31.01 L 29.15 31.83 L 29.56 31.83 L 29.56 32.66 L 29.98 32.66 L 29.98 33.49 L 30.39 33.49 L 30.39 31.42 L 29.98 31.42 L 29.98 30.6 L 29.56 30.6 L 29.56 30.18 L 29.15 30.18 L 27.91 28.53 L 27.09 28.94 L 27.09 31.01 L 27.5 31.01 Z M 23.37 40.92 L 23.78 40.92 L 23.78 39.68 L 20.89 39.68 L 20.89 40.09 L 20.07 40.5 L 19.66 42.16 L 22.13 42.16 L 22.13 41.74 L 22.96 41.74 Z M 25.44 54.95 L 25.85 54.95 L 25.85 55.78 L 26.26 55.78 L 26.67 58.26 L 18.42 58.67 L 18.42 59.08 L 16.77 59.5 L 16.77 59.91 L 16.35 59.91 L 16.35 60.73 L 15.53 60.73 L 15.53 60.32 L 15.11 60.32 L 15.11 58.67 L 15.53 58.67 L 15.53 57.84 L 16.35 57.43 L 16.35 56.61 L 16.77 56.61 L 16.77 56.19 L 23.78 56.61 L 23.78 56.19 L 24.61 56.19 Z M 36.58 67.34 L 37 67.34 L 37 68.17 L 36.58 68.17 L 36.58 68.58 L 36.17 68.58 L 36.17 69.4 L 35.34 69.82 L 35.34 70.64 L 34.93 70.64 L 34.93 71.47 L 34.52 71.47 L 34.52 72.29 L 34.11 72.29 L 34.11 73.53 L 33.69 73.53 L 33.69 75.6 L 33.28 75.6 L 33.28 80.55 L 33.69 80.55 L 33.69 82.2 L 33.28 82.2 L 33.28 81.38 L 32.87 81.38 L 32.87 80.55 L 32.45 80.55 L 32.45 79.72 L 32.04 79.72 L 32.04 78.9 L 31.63 78.9 L 31.22 76.42 L 30.8 76.42 L 30.8 73.94 L 30.39 73.94 L 30.8 67.75 L 32.04 67.75 L 32.04 68.17 L 34.93 68.17 L 34.93 67.75 L 36.58 67.75 Z"/>
</svg>
